<svg id="Layer_1" data-name="Layer 1" xmlns="http://www.w3.org/2000/svg" xmlns:xlink="http://www.w3.org/1999/xlink" viewBox="0 0 1920 1080"><defs><style>.cls-1,.cls-12,.cls-14,.cls-16,.cls-17,.cls-21{fill:none;}.cls-2{fill:#e0e0e0;}.cls-3{fill:url(#New_Pattern_2);}.cls-4{fill:#ffc221;}.cls-5{clip-path:url(#clip-path);}.cls-6{fill:url(#linear-gradient);}.cls-7{fill:#ffa000;}.cls-8{fill:#e8577c;}.cls-9{fill:#6374db;}.cls-10{fill:#f9f9f9;}.cls-11{clip-path:url(#clip-path-2);}.cls-12{stroke:#f9f9f9;stroke-width:1.01px;}.cls-12,.cls-14,.cls-16,.cls-17,.cls-21{stroke-miterlimit:10;}.cls-13{clip-path:url(#clip-path-3);}.cls-14{stroke:#6374db;stroke-width:0.96px;}.cls-15{clip-path:url(#clip-path-4);}.cls-16,.cls-17{stroke:#000;}.cls-16{stroke-width:2.09px;}.cls-17{stroke-width:1px;}.cls-18{fill:#ff815a;}.cls-19{fill:#640600;}.cls-20{fill:#9baede;}.cls-21{stroke:#f3e6e0;stroke-width:0.57px;}.cls-22{fill:#f3e6e0;}.cls-23{fill:#d6411e;}.cls-24{clip-path:url(#clip-path-5);}.cls-25{clip-path:url(#clip-path-6);}</style><pattern id="New_Pattern_2" data-name="New Pattern 2" width="11" height="15" patternTransform="translate(18.96 17.26) scale(1.12)" patternUnits="userSpaceOnUse" viewBox="0 0 11 15"><rect class="cls-1" width="11" height="15"/><path class="cls-2" d="M6.88,35.69h0a1.67,1.67,0,0,1-.36-2.34L23.78,9.67a1.68,1.68,0,0,1,2.34-.36h0a1.67,1.67,0,0,1,.36,2.34L9.22,35.33A1.68,1.68,0,0,1,6.88,35.69Z"/><path class="cls-2" d="M-4.12,35.69h0a1.67,1.67,0,0,1-.36-2.34L12.78,9.67a1.68,1.68,0,0,1,2.34-.36h0a1.67,1.67,0,0,1,.36,2.34L-1.78,35.33A1.68,1.68,0,0,1-4.12,35.69Z"/><path class="cls-2" d="M-15.12,35.69h0a1.67,1.67,0,0,1-.36-2.34L1.78,9.67a1.68,1.68,0,0,1,2.34-.36h0a1.67,1.67,0,0,1,.36,2.34L-12.78,35.33A1.68,1.68,0,0,1-15.12,35.69Z"/><path class="cls-2" d="M6.88,20.69h0a1.67,1.67,0,0,1-.36-2.34L23.78-5.33a1.68,1.68,0,0,1,2.34-.36h0a1.67,1.67,0,0,1,.36,2.34L9.22,20.33A1.68,1.68,0,0,1,6.88,20.69Z"/><path class="cls-2" d="M-4.12,20.69h0a1.67,1.67,0,0,1-.36-2.34L12.78-5.33a1.68,1.68,0,0,1,2.34-.36h0a1.67,1.67,0,0,1,.36,2.34L-1.78,20.33A1.68,1.68,0,0,1-4.12,20.69Z"/><path class="cls-2" d="M-15.12,20.69h0a1.67,1.67,0,0,1-.36-2.34L1.78-5.33a1.68,1.68,0,0,1,2.34-.36h0a1.67,1.67,0,0,1,.36,2.34L-12.78,20.33A1.68,1.68,0,0,1-15.12,20.69Z"/><path class="cls-2" d="M6.88,5.69h0a1.67,1.67,0,0,1-.36-2.34L23.78-20.33a1.68,1.68,0,0,1,2.34-.36h0a1.67,1.67,0,0,1,.36,2.34L9.22,5.33A1.68,1.68,0,0,1,6.88,5.69Z"/><path class="cls-2" d="M-4.12,5.69h0a1.67,1.67,0,0,1-.36-2.34L12.78-20.33a1.68,1.68,0,0,1,2.34-.36h0a1.67,1.67,0,0,1,.36,2.34L-1.78,5.33A1.68,1.68,0,0,1-4.12,5.69Z"/><path class="cls-2" d="M-15.12,5.69h0a1.67,1.67,0,0,1-.36-2.34L1.78-20.33a1.68,1.68,0,0,1,2.34-.36h0a1.67,1.67,0,0,1,.36,2.34L-12.78,5.33A1.68,1.68,0,0,1-15.12,5.69Z"/></pattern><clipPath id="clip-path"><rect class="cls-1" x="849.91" y="200.33" width="375.7" height="679.26" rx="13.53"/></clipPath><linearGradient id="linear-gradient" x1="738.83" y1="428.05" x2="1222.4" y2="428.05" gradientTransform="matrix(0.97, -0.24, 0.24, 0.97, -32.98, 324.88)" gradientUnits="userSpaceOnUse"><stop offset="0" stop-color="#fff" stop-opacity="0.5"/><stop offset="0.7" stop-color="#fff" stop-opacity="0.04"/><stop offset="1" stop-color="#fff" stop-opacity="0"/></linearGradient><clipPath id="clip-path-2"><path class="cls-1" d="M1074.27,549.07h100.8l36,148.06s-36,12.47-88.2,12.47-78.3-9.15-78.3-9.15Z"/></clipPath><clipPath id="clip-path-3"><path class="cls-1" d="M1089,255.92s12.52-27.49,20.67-36.27,26.93-14,26.93-14,4.28,13.7,21.3,13.45,17.49-14.13,17.49-14.13,23.45,4.15,29.72,12.34,19.81,34.54,19.81,34.54l-23.81,8.78-9.39-13.46,15.66,90.66-93.33.59,9.4-89.49-7.52,14.62Z"/></clipPath><clipPath id="clip-path-4"><path class="cls-1" d="M841,378.25V296.77s-1.2-25.68,40.66-24.56S975,284.49,975,284.49s19.13,0,19.13,34.6-1.2,69.21-1.2,69.21L960.6,403.93Z"/></clipPath><clipPath id="clip-path-5"><path class="cls-1" d="M700.6,441.1s0,52.38-5,61.9c0,0,36.55,18.27,39.82,0L733,450.63Z"/></clipPath><clipPath id="clip-path-6"><path class="cls-1" d="M774.59,431.11c0,25.67-8.29,46.49-32.06,46.49s-54-20.82-54-46.49,15.19-49.64,54-46.49C766.21,386.54,774.59,405.44,774.59,431.11Z"/></clipPath></defs><ellipse class="cls-2" cx="942.71" cy="375.09" rx="299.51" ry="279.69"/><ellipse class="cls-3" cx="1210.79" cy="695.37" rx="266.17" ry="248.56"/><rect class="cls-4" x="849.91" y="200.33" width="375.7" height="679.26" rx="13.53"/><g class="cls-5"><polygon class="cls-6" points="863.96 862.44 1200.55 217.96 869.38 217.7 863.96 862.44"/></g><path d="M1183,200.33H890.64c-23,0-41.69,17.43-41.69,38.93v601.4c0,21.5,18.66,38.93,41.69,38.93H1183c23,0,41.69-17.43,41.69-38.93V239.26C1224.65,217.76,1206,200.33,1183,200.33Zm22.37,635.81c0,13.27-11.51,24-25.72,24H894c-14.21,0-25.73-10.75-25.73-24V243.78c0-13.26,11.52-24,25.73-24h61.82l13.42,18.1A15.92,15.92,0,0,0,982,244.13h116.42a15.92,15.92,0,0,0,12.82-6.27l13.42-18.1h54.91c14.21,0,25.72,10.76,25.72,24Z"/><path class="cls-7" d="M572.42,650.35c0,9.94-8.64,18-19.29,18s-19.29-8.06-19.29-18,8.64-18,19.29-18S572.42,640.4,572.42,650.35Z"/><path class="cls-8" d="M484.73,561c0,7.35-6.38,13.31-14.26,13.31s-14.26-6-14.26-13.31,6.38-13.32,14.26-13.32S484.73,553.65,484.73,561Z"/><path class="cls-8" d="M1322.45,883.38c0,7.36-6.39,13.32-14.26,13.32s-14.26-6-14.26-13.32,6.38-13.31,14.26-13.31S1322.45,876,1322.45,883.38Z"/><path class="cls-9" d="M1458.62,799.83c0,5.08-4.41,9.19-9.85,9.19s-9.84-4.11-9.84-9.19,4.41-9.2,9.84-9.2S1458.62,794.75,1458.62,799.83Z"/><path class="cls-7" d="M762.37,132.56c0,5-4.31,9-9.63,9s-9.63-4-9.63-9,4.31-9,9.63-9S762.37,127.59,762.37,132.56Z"/><path class="cls-9" d="M1395.94,413.51c0,8-6.91,14.41-15.43,14.41s-15.43-6.45-15.43-14.41,6.91-14.4,15.43-14.4S1395.94,405.56,1395.94,413.51Z"/><ellipse class="cls-9" cx="726.71" cy="302.75" rx="22.46" ry="20.97"/><rect class="cls-4" x="515.79" y="420.72" width="179.36" height="37.82"/><rect class="cls-8" x="1293.03" y="544.99" width="179.36" height="37.82"/><rect class="cls-9" x="1057.62" y="910.43" width="170.24" height="35.52"/><path class="cls-4" d="M1341,670.16c0,8-6.9,14.4-15.42,14.4s-15.43-6.45-15.43-14.4,6.9-14.41,15.43-14.41S1341,662.2,1341,670.16Z"/><rect class="cls-10" x="1008.64" y="516.94" width="233.24" height="290.42" rx="7.68"/><rect class="cls-8" x="1025.69" y="729.66" width="196.76" height="62.48" rx="3.27"/><path class="cls-10" d="M1048.71,748.71a32.94,32.94,0,0,1,5.78-.47c3.16,0,5.19.5,6.72,1.64a4.63,4.63,0,0,1,2,4c0,2.18-1.57,4.09-4.15,5v.07c2.33.54,5.05,2.32,5.05,5.67a5.89,5.89,0,0,1-2.07,4.54c-1.7,1.44-4.47,2.11-8.46,2.11a38.94,38.94,0,0,1-4.91-.27Zm3.16,9.26h2.87c3.35,0,5.31-1.61,5.31-3.79,0-2.65-2.18-3.69-5.38-3.69a14.82,14.82,0,0,0-2.8.2Zm0,10.84a17,17,0,0,0,2.66.14c3.26,0,6.28-1.11,6.28-4.4,0-3.09-2.87-4.36-6.32-4.36h-2.62Z"/><path class="cls-10" d="M1071.56,748.4v13.4c0,5.07,2.44,7.22,5.71,7.22,3.63,0,6-2.22,6-7.22V748.4h3.2v13.2c0,6.95-4,9.8-9.26,9.8-5,0-8.79-2.65-8.79-9.67V748.4Z"/><path class="cls-10" d="M1097.35,771v-9.6l-7.73-13h3.59l3.45,6.25c.95,1.71,1.67,3.09,2.44,4.66h.07c.69-1.47,1.53-2.95,2.47-4.66l3.53-6.25h3.59l-8.21,13V771Z"/><path class="cls-10" d="M1119.26,771V748.4h3.45l7.85,11.45a63.56,63.56,0,0,1,4.39,7.35l.08,0a93,93,0,0,1-.37-9.3V748.4h3V771h-3.2l-7.77-11.48a71.13,71.13,0,0,1-4.58-7.55l-.11,0c.19,2.85.26,5.57.26,9.33V771Z"/><path class="cls-10" d="M1164.09,759.48c0,7.79-5.12,11.92-11.37,11.92-6.47,0-11-4.63-11-11.48,0-7.18,4.83-11.88,11.37-11.88S1164.09,752.77,1164.09,759.48Zm-19,.37c0,4.84,2.83,9.17,7.81,9.17s7.85-4.27,7.85-9.4c0-4.5-2.55-9.2-7.82-9.2S1145.09,754.88,1145.09,759.85Z"/><path class="cls-10" d="M1172.19,771,1166,748.4h3.35l2.9,11.45c.73,2.82,1.38,5.64,1.82,7.82h.07c.4-2.25,1.17-4.93,2-7.85l3.27-11.42h3.31l3,11.48c.69,2.69,1.34,5.38,1.7,7.76h.08c.51-2.48,1.2-5,2-7.82l3.23-11.42h3.24L1188.94,771h-3.31l-3.09-11.78a65.2,65.2,0,0,1-1.6-7.39h-.07a66.71,66.71,0,0,1-1.89,7.39L1175.49,771Z"/><path class="cls-9" d="M1074.27,549.07h100.8l36,148.06s-36,12.47-88.2,12.47-78.3-9.15-78.3-9.15Z"/><g class="cls-11"><line class="cls-12" x1="1067.07" y1="556.56" x2="1186.77" y2="556.56"/><polyline class="cls-12" points="1078.77 556.56 1053.57 707.94 1067.97 710.44 1090.47 556.56"/><polyline class="cls-12" points="1102.17 556.56 1079.67 712.1 1093.17 712.93 1113.87 556.56"/><polyline class="cls-12" points="1185.4 555.29 1210.6 706.67 1196.2 709.17 1173.7 555.29"/><polyline class="cls-12" points="1162 555.29 1184.5 710.83 1171 711.66 1150.3 555.29"/><polyline class="cls-12" points="1120.17 555.72 1108.47 713.76 1125.57 716.26 1125.57 557.39"/><polyline class="cls-12" points="1135.47 556.56 1139.97 712.93 1153.47 712.1 1142.67 555.72"/></g><rect class="cls-10" x="1058.93" y="177.19" width="199.58" height="251.09" rx="6.6"/><rect class="cls-8" x="1074.54" y="358.59" width="168.36" height="54.02" rx="2.81"/><path class="cls-10" d="M1094.25,375.05a28.23,28.23,0,0,1,4.94-.4c2.7,0,4.44.43,5.75,1.42a4,4,0,0,1,1.74,3.45c0,1.89-1.34,3.54-3.54,4.3v.06a5,5,0,0,1,2.55,8.82c-1.47,1.25-3.83,1.83-7.25,1.83a35.12,35.12,0,0,1-4.19-.23Zm2.7,8h2.46c2.86,0,4.53-1.39,4.53-3.27,0-2.3-1.86-3.2-4.6-3.2a12,12,0,0,0-2.39.18Zm0,9.38a15,15,0,0,0,2.27.12c2.8,0,5.38-1,5.38-3.81,0-2.67-2.46-3.77-5.41-3.77H1097Z"/><path class="cls-10" d="M1113.8,374.79v11.58c0,4.39,2.08,6.24,4.88,6.24,3.11,0,5.1-1.91,5.1-6.24V374.79h2.73V386.2c0,6-3.39,8.47-7.92,8.47-4.29,0-7.53-2.29-7.53-8.35V374.79Z"/><path class="cls-10" d="M1135.87,394.35v-8.3l-6.62-11.26h3.07l3,5.4c.8,1.48,1.43,2.67,2.08,4h.06c.59-1.28,1.31-2.56,2.12-4l3-5.4h3.08l-7,11.23v8.33Z"/><path class="cls-10" d="M1154.61,394.35V374.79h3l6.72,9.9a54.89,54.89,0,0,1,3.76,6.36l.06,0c-.25-2.62-.31-5-.31-8v-8.19h2.55v19.56h-2.74l-6.65-9.92a60.19,60.19,0,0,1-3.91-6.53l-.1,0c.16,2.47.22,4.82.22,8.07v8.35Z"/><path class="cls-10" d="M1193,384.37c0,6.73-4.39,10.3-9.73,10.3-5.53,0-9.42-4-9.42-9.92,0-6.21,4.13-10.28,9.73-10.28S1193,378.57,1193,384.37Zm-16.26.32c0,4.18,2.42,7.92,6.68,7.92s6.72-3.68,6.72-8.12c0-3.89-2.18-8-6.69-8S1176.71,380.4,1176.71,384.69Z"/><path class="cls-10" d="M1199.9,394.35l-5.32-19.56h2.86l2.49,9.9c.62,2.44,1.18,4.88,1.55,6.76h.07c.34-1.94,1-4.26,1.7-6.79l2.8-9.87h2.83l2.55,9.93c.59,2.32,1.15,4.64,1.46,6.7h.06c.44-2.14,1-4.32,1.68-6.76l2.77-9.87h2.76l-5.93,19.56h-2.83l-2.64-10.18a54,54,0,0,1-1.37-6.39h-.06a58.79,58.79,0,0,1-1.62,6.39l-3,10.18Z"/><path class="cls-9" d="M1183.6,211.62c0,4.83-12.07,8.74-27,8.74s-27-3.91-27-8.74,12.07-8.73,27-8.73S1183.6,206.8,1183.6,211.62Z"/><path class="cls-4" d="M1089,255.92s12.52-27.49,20.67-36.27,26.93-14,26.93-14,4.28,13.7,21.3,13.45,17.49-14.13,17.49-14.13,23.45,4.15,29.72,12.34,19.81,34.54,19.81,34.54l-23.81,8.78-9.39-13.46,15.66,90.66-93.33.59,9.4-89.49-7.52,14.62Z"/><g class="cls-13"><line class="cls-14" x1="1157.86" y1="219.07" x2="1159.94" y2="353.96"/></g><ellipse class="cls-8" cx="950.35" cy="143.36" rx="18.25" ry="17.04"/><path class="cls-8" d="M580.68,316.26c0,5.61-4.87,10.16-10.88,10.16s-10.89-4.55-10.89-10.16,4.88-10.16,10.89-10.16S580.68,310.65,580.68,316.26Z"/><ellipse class="cls-8" cx="1380.51" cy="197.39" rx="10.88" ry="10.16"/><path class="cls-4" d="M1304.61,288.6c0,5.62-4.88,10.17-10.89,10.17s-10.88-4.55-10.88-10.17,4.87-10.16,10.88-10.16S1304.61,283,1304.61,288.6Z"/><rect class="cls-10" x="800.42" y="205.65" width="233.24" height="293.34" rx="7.72"/><ellipse class="cls-2" cx="916.91" cy="388.01" rx="96.47" ry="22.52"/><rect class="cls-8" x="818.67" y="417.57" width="196.76" height="63.11" rx="3.29"/><path class="cls-10" d="M841.69,436.81a32.94,32.94,0,0,1,5.78-.47c3.16,0,5.19.5,6.72,1.66a4.67,4.67,0,0,1,2,4c0,2.21-1.56,4.14-4.14,5v.07c2.33.54,5,2.34,5,5.73a5.94,5.94,0,0,1-2.07,4.57c-1.71,1.46-4.47,2.14-8.46,2.14a38.81,38.81,0,0,1-4.91-.27Zm3.16,9.36h2.87c3.34,0,5.31-1.63,5.31-3.83,0-2.68-2.18-3.73-5.38-3.73a14.82,14.82,0,0,0-2.8.2Zm0,10.95a18.26,18.26,0,0,0,2.65.14c3.27,0,6.29-1.12,6.29-4.45,0-3.12-2.87-4.4-6.32-4.4h-2.62Z"/><path class="cls-10" d="M864.54,436.51V450c0,5.12,2.43,7.29,5.7,7.29,3.64,0,6-2.23,6-7.29V436.51h3.2v13.32c0,7-4,9.9-9.26,9.9-5,0-8.8-2.68-8.8-9.76V436.51Z"/><path class="cls-10" d="M890.33,459.36v-9.7l-7.74-13.15h3.6l3.45,6.3c1,1.73,1.67,3.12,2.44,4.71h.07c.69-1.49,1.52-3,2.47-4.71l3.52-6.3h3.6l-8.21,13.12v9.73Z"/><path class="cls-10" d="M912.24,459.36V436.51h3.45l7.85,11.56a64,64,0,0,1,4.39,7.42l.07,0c-.29-3-.36-5.83-.36-9.39v-9.56h3v22.85h-3.2l-7.77-11.6a71,71,0,0,1-4.58-7.63l-.11,0c.18,2.88.26,5.63.26,9.42v9.77Z"/><path class="cls-10" d="M957.07,447.69c0,7.87-5.13,12-11.38,12-6.46,0-11-4.68-11-11.6,0-7.25,4.83-12,11.37-12S957.07,440.91,957.07,447.69Zm-19,.38c0,4.88,2.84,9.25,7.82,9.25s7.84-4.3,7.84-9.49c0-4.54-2.54-9.29-7.81-9.29S938.06,443.05,938.06,448.07Z"/><path class="cls-10" d="M965.17,459.36,959,436.51h3.34l2.91,11.56c.73,2.85,1.38,5.69,1.82,7.9h.07c.4-2.27,1.16-5,2-7.94l3.27-11.52h3.31l3,11.59c.69,2.71,1.35,5.43,1.71,7.83h.07c.51-2.51,1.2-5.05,2-7.9l3.23-11.52h3.23l-6.94,22.85h-3.3l-3.09-11.9a66.56,66.56,0,0,1-1.6-7.46h-.07a68.07,68.07,0,0,1-1.89,7.46l-3.49,11.9Z"/><path class="cls-4" d="M877.49,236.49c19-12.69,43-10.05,43-10.05s-22.12,6.14-37.67,25.12-17.93,41.86-17.93,41.86l-18.54,6.7S848.19,256,877.49,236.49Z"/><path class="cls-9" d="M841,378.25V296.77s-1.2-25.68,40.66-24.56S975,284.49,975,284.49s19.13,0,19.13,34.6-1.2,69.21-1.2,69.21L960.6,403.93Z"/><g class="cls-15"><path class="cls-4" d="M983.32,280s-19.13,4.47-20.33,34.61c-1.46,36.88-2.39,89.3-2.39,89.3l32.28-15.63,6-101.58Z"/><path class="cls-4" d="M885.26,388.3V306.81s0-37.95,38.27-35.72l22.72,4.47s-39.46,3.35-39.46,33.49c0,19-1.2,85.95-1.2,85.95Z"/><path class="cls-16" d="M898.15,359.32l-8.67-1.62a7.84,7.84,0,0,1-6.61-7.53v-6.85c0-4.84,4.75-8.47,9.84-7.52l8.66,1.62a7.81,7.81,0,0,1,6.61,7.52v6.85C908,356.63,903.24,360.27,898.15,359.32Z"/></g><path class="cls-9" d="M896.62,228.68s34.55-7.61,56.8,21.21c14,18.16,17.1,57.76,17.76,75.93.19,5.06,5,8.86,10.38,8.19h0a8.78,8.78,0,0,0,8-8.41c.13-17.43-1.84-61.07-23.54-83.53C943.89,219.21,911.57,222,896.62,228.68Z"/><polygon class="cls-9" points="868.22 787.22 738.04 787.22 747.68 655.75 859.54 655.75 868.22 787.22"/><path class="cls-17" d="M781,671.06V619.19c0-9.15,9.93-16.57,22.18-16.57h0c12.25,0,22.18,7.42,22.18,16.57v51.87"/><path class="cls-18" d="M759.67,515.17s27.33,74.47,36.92,85.92,70.91,13.23,70.91,13.23v19.82s-84.55,3.85-97.34-17C761,602.1,714.38,522.63,759.67,515.17Z"/><path class="cls-18" d="M854.75,634c2.17,2.77,20.3,4.43,27.78,3.44,9.55-1.26,13-24,7.4-22.45-6.18,1.75-10.94,3.37-10.94,3.37s13.36.25,10.18-5.62c0,0-19.48-3-30.42,1S852.59,631.21,854.75,634Z"/><path class="cls-19" d="M889.93,615a33.39,33.39,0,0,0-4.36,0,10,10,0,0,0-4.16,1,1.53,1.53,0,0,0-.65.73,1.5,1.5,0,0,0,0,1,2.32,2.32,0,0,0,1.46,1.32,10.53,10.53,0,0,0,4.22.46V620a14.54,14.54,0,0,0-3.67.22,6.51,6.51,0,0,0-1.71.58,2.48,2.48,0,0,0-1.18,1.17c-.22.47.2.88.72,1.14a7.47,7.47,0,0,0,1.71.57,25.19,25.19,0,0,0,3.68.47l0,.54a28.65,28.65,0,0,0-3.71-.23,12.42,12.42,0,0,0-1.83.14,3.82,3.82,0,0,0-1.64.57.91.91,0,0,0-.4.61,1.32,1.32,0,0,0,.1.78,3.2,3.2,0,0,0,1.17,1.26,11.77,11.77,0,0,0,3.35,1.5l-.18.37a9.13,9.13,0,0,0-3.23-1.63,2.66,2.66,0,0,0-1.72.08,2.12,2.12,0,0,0-1.1,1.28,2,2,0,0,0,.31,1.67,5.64,5.64,0,0,0,1.24,1.34,14.79,14.79,0,0,0,3.18,1.9,15,15,0,0,1-3.26-1.8,6,6,0,0,1-1.32-1.33,2.21,2.21,0,0,1-.4-1.85,2.33,2.33,0,0,1,1.22-1.49,3.05,3.05,0,0,1,1.93-.13,9.64,9.64,0,0,1,3.4,1.63.21.21,0,0,1,.05.28.18.18,0,0,1-.22.08h0a12.36,12.36,0,0,1-3.51-1.5,3.81,3.81,0,0,1-1.35-1.46,1.92,1.92,0,0,1-.14-1.06,1.46,1.46,0,0,1,.58-.93,4.47,4.47,0,0,1,1.87-.68,13.54,13.54,0,0,1,1.91-.16,26.77,26.77,0,0,1,3.79.22.28.28,0,0,1,.24.3.29.29,0,0,1-.29.25,22,22,0,0,1-3.78-.49,8,8,0,0,1-1.84-.63,2.2,2.2,0,0,1-.82-.66,1.15,1.15,0,0,1-.13-1.13,3,3,0,0,1,1.42-1.44,6.93,6.93,0,0,1,1.85-.61,15.2,15.2,0,0,1,3.81-.21h0a.23.23,0,0,1,.21.25.22.22,0,0,1-.22.22,11,11,0,0,1-4.41-.57,2.66,2.66,0,0,1-1.63-1.58,1.84,1.84,0,0,1,0-1.18,1.94,1.94,0,0,1,.79-.86,6,6,0,0,1,2.12-.7,16.09,16.09,0,0,1,2.19-.22A33.53,33.53,0,0,1,889.93,615Z"/><path class="cls-19" d="M868.46,620.18c2.29-.41,4.56-.82,6.77-1.43a20.18,20.18,0,0,0,3.22-1.14,6.89,6.89,0,0,0,1.45-.87,3.82,3.82,0,0,0,1.1-1.29,4.6,4.6,0,0,1-2.35,2.54,14.12,14.12,0,0,1-3.27,1.3,24,24,0,0,1-3.44.68A25.3,25.3,0,0,1,868.46,620.18Z"/><path class="cls-17" d="M803.13,602.62h0c12.25,0,22.18,7.42,22.18,16.57v51.87"/><path class="cls-18" d="M605.71,909.19s-27.27,26.08-21.93,31,60.71,39.07,62.73,33.71-26.77-39.59-26.77-39.59l2-15.28Z"/><path class="cls-8" d="M633,950s25.46,17.66,13.47,24-70-30.85-69.49-35.9,13.76-14.68,14.25-14.68c4.66,0-2.06,8,6.39,14.22C624.49,957.42,633,950,633,950Z"/><path class="cls-18" d="M810,927.92s-7.38,35.8,0,37.17,73.7,1.38,72.23-4.13-45.7-19.27-45.7-19.27l-7.37-13.77Z"/><path class="cls-8" d="M856.69,948.42s31.6,2.54,24.95,13.79-76.91,8.07-79.33,3.53,3.45-19.24,3.87-19.48c4-2.29,2.69,8.28,13.44,9C854,957.42,856.69,948.42,856.69,948.42Z"/><path class="cls-20" d="M815.84,794.39C805.72,766,755.69,631.25,755.69,631.25s-88.87-64.08-98.43,1c0,0-11.82,27.84-9.57,67.24s3,97.6,3,97.6L596.19,908.65l33.75,20s64-96,68-115c2.82-13.55,12.49-63,17.75-90,18.87,32.38,44.1,75.21,48.59,80.37,7.31,8.4,38.13,128.73,38.13,128.73L840.07,928S820.26,806.78,815.84,794.39Z"/><path class="cls-21" d="M678.25,636.08s-2.46,30.74-30.47,29.83"/><path class="cls-22" d="M736.24,646.4c0,2.16-.88,3.9-2,3.9s-2-1.74-2-3.9.88-3.9,2-3.9S736.24,644.25,736.24,646.4Z"/><path class="cls-21" d="M749,635.16s11.8,23.4,17.2,23.86"/><path class="cls-21" d="M737.71,710.42l-22.6,11.93s15.72-10.1,13.75-82.6"/><path class="cls-23" d="M695.85,391s53.36-25.21,73.93-13.81,12.6,81.36,37.8,98-7.59,46.67-48.09,45.47-97.25,20.54-115.72-3.6c-16.07-21,17.36-21,18.65-44.42s9-61.24,19.93-70.84S695.85,391,695.85,391Z"/><path d="M712.94,498.36c-15.21-1.38-51.75,14.71-51.75,21.53s19.13,55.68,14.63,70.39-12.94,42.55-12.94,42.55,27.56,7.35,56.81,7.35,36-8.93,36-8.93,13.21-57.62,11.82-74.06c-1.69-20-6.75-42-6.75-42S747.82,501.51,712.94,498.36Z"/><path class="cls-18" d="M700.6,441.1s0,52.38-5,61.9c0,0,37.51,20.07,39.82,0L733,450.63Z"/><g class="cls-24"><path class="cls-19" d="M701.69,456.07s23.63,29.16,39.66,29.16,5.06-15.76,5.06-15.76l-50.62-11"/></g><path class="cls-18" d="M774.59,431.11c0,25.67-8.29,46.49-32.06,46.49s-54-20.82-54-46.49,15.19-49.64,54-46.49C766.21,386.54,774.59,405.44,774.59,431.11Z"/><g class="cls-25"><path class="cls-23" d="M695.79,458.44s-3.38-26.79,1.68-28.37,11.82,5.52,15.19,3.15,5.49-26.39,5.49-31.91,55.68-.39,58.22-2-3.8-37-3.8-37L666.26,367l11,70.91Z"/></g><path class="cls-19" d="M740.72,428c0,2.16-1.08,3.92-2.4,3.92s-2.4-1.76-2.4-3.92S737,424,738.32,424,740.72,425.79,740.72,428Z"/><path class="cls-19" d="M767.5,428c0,2.16-1.07,3.92-2.39,3.92s-2.4-1.76-2.4-3.92,1.07-3.92,2.4-3.92S767.5,425.79,767.5,428Z"/><path class="cls-19" d="M755.69,424.56c.69,1.49,1.42,3,2.16,4.42s1.55,2.88,2.37,4.29a31,31,0,0,0,2.78,4,13.68,13.68,0,0,0,1.67,1.73,4.61,4.61,0,0,0,2,1.05l.81.14-.72.36a37,37,0,0,1-5.8,2.29,20.86,20.86,0,0,1-3,.67,9.21,9.21,0,0,1-3.1,0,9.89,9.89,0,0,0,3.07-.17,25.41,25.41,0,0,0,3-.81,45.59,45.59,0,0,0,5.66-2.41l.08.5a5.18,5.18,0,0,1-2.31-1.14,12.41,12.41,0,0,1-1.77-1.78,31.91,31.91,0,0,1-2.77-4.12c-.84-1.43-1.54-2.92-2.23-4.41S756.24,426.11,755.69,424.56Z"/><path class="cls-10" d="M759.07,447.41s-2,13.53-9.54,13.53S740,446.08,740,446.08Z"/><path class="cls-18" d="M711,434s-14-25-18.56-3.94c-3.37,15.76,12.66,18.12,15.19,15"/><path class="cls-19" d="M729.54,419.43a8.66,8.66,0,0,1,3.22-2.55,11.23,11.23,0,0,1,4-1.05,14.31,14.31,0,0,1,4.13.45c.67.17,1.31.44,2,.66s1.24.6,1.84.92c-.65-.2-1.29-.44-1.94-.64s-1.3-.37-2-.48a15.36,15.36,0,0,0-4-.31,12,12,0,0,0-3.88.87A11,11,0,0,0,729.54,419.43Z"/><path class="cls-19" d="M756.38,417.52a7.29,7.29,0,0,1,3-1.54,9.41,9.41,0,0,1,3.47-.21,11.22,11.22,0,0,1,3.3,1c.52.24,1,.57,1.49.85s.92.69,1.35,1.05c-.51-.25-1-.54-1.5-.79s-1-.5-1.53-.69a14.89,14.89,0,0,0-3.19-.85A10.58,10.58,0,0,0,756.38,417.52Z"/><path class="cls-19" d="M701.55,443.35a23.94,23.94,0,0,1-.16-3.06,8.65,8.65,0,0,1,.48-3.05,1.46,1.46,0,0,1,1.26-1,2.59,2.59,0,0,1,1.49.61,13,13,0,0,1,2.15,2.24l-.4.21a56.08,56.08,0,0,0-2.71-6.21,25.31,25.31,0,0,0-1.74-2.88,7.14,7.14,0,0,0-2.31-2.27,1.81,1.81,0,0,0-1.43-.13,2.16,2.16,0,0,0-1,1.09,8.49,8.49,0,0,0-.7,3.22,17.27,17.27,0,0,0,.17,3.37,10.45,10.45,0,0,0,.36,1.66,3.86,3.86,0,0,0,.77,1.49,3.89,3.89,0,0,1-.88-1.46,13,13,0,0,1-.48-1.65,15.09,15.09,0,0,1-.33-3.42,8.9,8.9,0,0,1,.63-3.43,2.64,2.64,0,0,1,1.26-1.36,2.37,2.37,0,0,1,1.87.12,7.53,7.53,0,0,1,2.56,2.42,22.37,22.37,0,0,1,1.77,3,45.41,45.41,0,0,1,2.63,6.33l.42,1.29-.81-1.08a12.58,12.58,0,0,0-2-2.22,2.27,2.27,0,0,0-1.26-.58,1.17,1.17,0,0,0-1,.79,8.47,8.47,0,0,0-.6,2.94A23.89,23.89,0,0,0,701.55,443.35Z"/><path class="cls-23" d="M784.56,417.65c-2-14.07-2-33.65-24.25-33.65s-51.1,12.85-51.1,12.85l.43.2-18.29,10.76-19.29,99.06s1.77,13.57,31.91.11c27.07-12.09-2.62-54.45,7.2-69.14,6.84-10.21,8-27.22,8-36.64C740,410.08,786.08,428.55,784.56,417.65Z"/><path class="cls-17" d="M593.15,789.92V756.06c0-9.15,13.27-16.57,29.65-16.57h0c16.38,0,29.65,7.42,29.65,16.57v33.86"/><polygon class="cls-4" points="726.71 877.27 518.89 877.27 522.27 766.51 716.42 768.01 726.71 877.27"/><path class="cls-18" d="M668,515.17c-19.5,0-20.28,65.68-31.87,95.2-7.8,19.86-18.8,100.21-18.8,100.21l24.76,7.87s19.85-80.33,23.8-95.06C678,578.13,701.06,515.17,668,515.17Z"/><path class="cls-17" d="M593.15,789.92V756.06c0-9.15,13.27-16.57,29.65-16.57h0c16.38,0,29.65,7.42,29.65,16.57v33.86"/><path class="cls-18" d="M618.54,708.94c-3.52.82-9.8,17.82-11.61,24.58-2.32,8.65,16.82,18.37,17.35,13,.58-5.94,5.78-12.43,5.78-12.43s-5.2,11.35,1.74,10.81c0,0,10.12-15.57,10.27-26.42S622.06,708.12,618.54,708.94Z"/><path class="cls-19" d="M618.87,747.79a59.88,59.88,0,0,1,.71-8,37.67,37.67,0,0,1,.85-3.93,8.53,8.53,0,0,1,1.77-3.59,5.6,5.6,0,0,0-1,1.74,18.32,18.32,0,0,0-.59,1.91c-.32,1.29-.56,2.6-.77,3.92s-.39,2.64-.56,4S619,746.46,618.87,747.79Z"/><path class="cls-19" d="M613.41,744.88a41.8,41.8,0,0,1-.06-7.75,24.71,24.71,0,0,1,.65-3.83,7.68,7.68,0,0,1,1.71-3.46,8.5,8.5,0,0,0-1.49,3.51,28.7,28.7,0,0,0-.57,3.81c-.12,1.28-.18,2.56-.22,3.85S613.39,743.59,613.41,744.88Z"/><path class="cls-19" d="M608.69,739.78a52.91,52.91,0,0,1,.38-5.48c.12-.91.24-1.82.42-2.72a7.38,7.38,0,0,1,.89-2.59,3.63,3.63,0,0,0-.42,1.29c-.1.44-.18.89-.24,1.34-.13.91-.26,1.81-.35,2.72l-.33,2.72Z"/><path class="cls-17" d="M627.94,739.74c13.93,1.36,24.51,8.15,24.51,16.32v33.86"/><path d="M672.06,514.37c-9,0-17.36,1.8-26.68,37.52,0,0,33.43,12.31,39.54,6.9S693.28,514.37,672.06,514.37Z"/><polygon points="760.76 515.17 777.17 546.19 764.31 554.59 760.76 515.17"/></svg>